HIERARCHY
ROOT Hips
{
  OFFSET -62.906 58.4239 -51.8212
  CHANNELS 6 Xposition Yposition Zposition Zrotation Xrotation Yrotation
  JOINT ToSpine
  {
    OFFSET -2.69724 7.43032 -0.144315
    CHANNELS 3 Zrotation Xrotation Yrotation
    JOINT Spine
    {
      OFFSET -0.0310711 10.7595 1.96963
      CHANNELS 3 Zrotation Xrotation Yrotation
      JOINT Spine1
      {
        OFFSET 13.1342 3.43533 0.764692
        CHANNELS 3 Zrotation Xrotation Yrotation
        JOINT Neck
        {
          OFFSET 29.8703 7.82586 -0.130764
          CHANNELS 3 Zrotation Xrotation Yrotation
          JOINT Head
          {
            OFFSET 9.52751 0.295786 -0.907742
            CHANNELS 3 Zrotation Xrotation Yrotation
            End Site
            {
              OFFSET 16.4037 0.713936 2.7358
            }
          }
        }
        JOINT LeftShoulder
        {
          OFFSET 27.5574 4.95586 2.47156
          CHANNELS 3 Zrotation Xrotation Yrotation
          JOINT LeftArm
          {
            OFFSET 1.20734 -0.998971 20.1238
            CHANNELS 3 Zrotation Xrotation Yrotation
            JOINT LeftForeArm
            {
              OFFSET 26.8049 -0.0536703 -0.155908
              CHANNELS 3 Zrotation Xrotation Yrotation
              JOINT LeftHand
              {
                OFFSET 26.6817 0 0.320147
                CHANNELS 3 Zrotation Xrotation Yrotation
                End Site
                {
                  OFFSET 18.6119 0 0.382219
                }
              }
            }
          }
        }
        JOINT RightShoulder
        {
          OFFSET 27.5927 4.71444 -2.65209
          CHANNELS 3 Zrotation Xrotation Yrotation
          JOINT RightArm
          {
            OFFSET 2.83739 -1.17114 -18.7564
            CHANNELS 3 Zrotation Xrotation Yrotation
            JOINT RightForeArm
            {
              OFFSET 28.839 -0.0548439 1.22491
              CHANNELS 3 Zrotation Xrotation Yrotation
              JOINT RightHand
              {
                OFFSET 26.5114 0 -0.101894
                CHANNELS 3 Zrotation Xrotation Yrotation
                End Site
                {
                  OFFSET 18.2168 0 0
                }
              }
            }
          }
        }
      }
    }
  }
  JOINT LeftUpLeg
  {
    OFFSET -4.76168 -1.9167 -10.2353
    CHANNELS 3 Zrotation Xrotation Yrotation
    JOINT LeftLeg
    {
      OFFSET 2.55951 -42.0585 -8.02213
      CHANNELS 3 Zrotation Xrotation Yrotation
      JOINT LeftFoot
      {
        OFFSET 3.16357 -42.5282 -3.95426
        CHANNELS 3 Zrotation Xrotation Yrotation
        JOINT LeftToeBase
        {
          OFFSET 0.346054 -6.02161 12.8035
          CHANNELS 3 Zrotation Xrotation Yrotation
          End Site
          {
            OFFSET 0.134235 -1.35082 5.13018
          }
        }
      }
    }
  }
  JOINT RightUpLeg
  {
    OFFSET -4.94151 -1.41743 10.6446
    CHANNELS 3 Zrotation Xrotation Yrotation
    JOINT RightLeg
    {
      OFFSET -2.56294 -42.0364 -7.94377
      CHANNELS 3 Zrotation Xrotation Yrotation
      JOINT RightFoot
      {
        OFFSET -3.0952 -42.555 -4.02241
        CHANNELS 3 Zrotation Xrotation Yrotation
        JOINT RightToeBase
        {
          OFFSET -0.0828122 -6.13587 12.8035
          CHANNELS 3 Zrotation Xrotation Yrotation
          End Site
          {
            OFFSET -0.131328 -1.35082 5.13018
          }
        }
      }
    }
  }
}
MOTION
Frames:	18
Frame Time:	0.0333333
-77.6016 48.6054 -66.1573 58.7482 -10.3587 -6.5166 -70.1915 0 88.8779 165.763 37.6069 -72.4682 -12.7222 24.7507 3.03196 -152.482 43.5046 162.851 153.75 80.3053 -103.678 0.497763 -13.4553 -26.967 -67.9668 56.6401 -71.4009 21.1423 24.219 -42.8118 0.420957 0.000575497 0.35866 -1.73083 9.00517 33.2005 -75.0646 5.31699 103.542 5.97289 -10.9072 29.1478 0.58676 0.000331214 0.0646655 -13.0925 -4.64563 86.7614 -169.133 36.634 142.338 -6.55324 -5.80883 -0.0301992 38.6148 -43.4843 42.2491 45.085 -14.5325 87.826 170.854 53.8945 -176.142 -14.4452 -22.3133 0.924891 2.44528 -8.83067 -16.1444 
-77.5307 48.3054 -66.0934 56.5754 -11.2681 -6.92195 -70.1915 0 88.8779 165.406 40.7876 -71.282 -11.2363 25.8166 1.74401 -152.297 43.5895 162.493 154.113 80.5285 -104.012 0.503423 -13.4784 -26.6561 -67.4589 56.7134 -71.9079 21.2029 24.1759 -42.9506 0.420957 0.000575497 0.35866 -1.75127 9.16296 33.0714 -76.5855 4.9337 103.251 6.56879 -12.0159 29.1384 0.58676 0.000331214 0.0646655 -11.3197 -3.09306 86.9629 -169.133 36.183 141.722 -6.31396 -6.41341 -0.13144 38.5683 -43.0764 43.1886 47.2426 -13.6463 86.9043 170.799 53.9127 -175.757 -14.7205 -21.9213 0.926643 2.52802 -8.8793 -17.1352 
-77.7403 48.3371 -66.1901 57.1786 -11.0285 -6.52002 -70.1915 0 88.8779 165.798 39.8813 -71.3632 -11.8783 25.7569 1.768 -150.772 43.4104 161.501 155.105 80.5641 -104.057 0.526068 -13.3899 -26.3774 -66.6398 56.6536 -72.3296 21.6128 24.3549 -43.3621 0.420957 0.000575497 0.35866 -1.94996 9.90868 33.5229 -76.6346 5.18787 101.656 6.10791 -11.1568 29.1599 0.58676 0.000331214 0.0646655 -11.4568 -3.2906 86.6146 -169.145 36.0692 141.887 -6.59178 -5.88477 -0.038528 39.1235 -43.5803 43.0149 46.6905 -14.1662 86.8872 170.825 54.0687 -176.012 -14.8422 -21.8223 0.924222 2.48911 -8.95966 -16.6957 
-77.8284 48.3372 -66.2053 57.3526 -11.1322 -6.44838 -70.1915 0 88.8779 165.914 39.9407 -71.4744 -11.4093 25.8544 1.79595 -151.518 43.4577 161.989 155.334 80.5933 -104.53 0.520832 -13.3656 -26.6957 -66.5192 56.2916 -72.2873 21.5221 23.7262 -43.9321 0.420957 0.000575497 0.35866 -1.94718 10.0405 33.2112 -76.93 5.83818 101.791 5.53586 -10.3626 28.5829 0.58676 0.000331214 0.0646655 -11.5331 -3.19589 86.6097 -169.145 35.9983 141.744 -6.24581 -6.03542 -0.0860751 38.9837 -43.1503 43.8253 46.5022 -14.0384 86.7458 170.842 54.2044 -176.203 -14.9406 -21.6337 0.928376 2.50189 -9.30563 -16.9563 
-77.9089 48.3423 -66.2544 57.5778 -11.1317 -6.25079 -70.1915 0 88.8779 166.213 39.4607 -71.3694 -11.6207 25.9446 1.4055 -151.187 43.1063 161.798 157.021 80.4276 -106.008 0.528966 -13.3904 -26.2779 -66.6259 56.5212 -72.0204 21.4427 23.7785 -43.7548 0.420957 0.000575497 0.35866 -1.94656 9.94571 33.4125 -77.267 6.19188 101.741 5.12687 -9.74112 28.2434 0.58676 0.000331214 0.0646655 -11.5767 -3.23681 86.407 -169.146 35.8662 141.567 -6.56954 -6.48551 -0.122448 38.3301 -42.5542 44.0611 46.2479 -14.2189 86.6137 170.85 54.2952 -176.302 -15.0576 -21.6403 0.920663 2.50882 -9.26492 -17.0264 
-77.9609 48.3661 -66.2595 57.8545 -11.1132 -5.99178 -70.1915 0 88.8779 166.424 39.2058 -71.4646 -11.5252 25.9173 1.60839 -151.691 42.7996 162.927 156.525 79.8031 -105.391 0.51428 -13.4279 -26.5666 -66.52 56.3564 -71.8576 20.9857 23.2918 -43.6276 0.420957 0.000575497 0.35866 -1.87333 9.85844 32.8311 -78.2443 5.7762 101.934 5.00162 -9.57136 28.0803 0.58676 0.000331214 0.0646655 -11.7739 -3.25073 86.119 -169.14 35.819 141.31 -6.65105 -6.16522 -0.0724519 38.6123 -42.6821 44.294 45.859 -14.4566 86.3701 170.852 54.4126 -176.37 -15.299 -21.5764 0.909121 2.52941 -9.62814 -17.4099 
-77.9242 48.3211 -66.2134 57.9689 -10.9896 -5.99939 -70.1915 0 88.8779 166.211 39.4212 -71.2393 -11.0802 25.8687 1.3748 -151.694 42.2842 163.011 160.313 79.7254 -108.552 0.518346 -13.44 -26.3632 -66.6648 56.6473 -71.7945 20.7847 23.3611 -43.2402 0.420957 0.000575497 0.35866 -1.85899 9.80248 32.8009 -78.5956 5.62906 101.909 4.50984 -8.64122 28.069 0.58676 0.000331214 0.0646655 -11.8832 -3.2526 86.1078 -169.138 35.7549 141.136 -6.49837 -6.23766 -0.0939572 38.2116 -42.2378 44.6508 45.7949 -14.529 86.4391 170.874 54.2895 -176.468 -15.4722 -21.6712 0.892519 2.55193 -9.8335 -17.7868 
-78.0275 48.2597 -66.2073 58.0368 -11.0658 -5.90337 -70.1915 0 88.8779 166.447 38.9666 -71.1426 -11.5489 26.0261 0.910091 -151.012 41.6431 162.668 163.965 79.4937 -111.167 0.530213 -13.4013 -26.1778 -66.246 56.5727 -71.7241 20.8492 23.5175 -43.1577 0.420957 0.000575497 0.35866 -1.87936 9.89094 32.8249 -78.9155 5.12939 101.939 4.7183 -9.22905 27.5922 0.58676 0.000331214 0.0646655 -11.8018 -3.17858 85.9645 -169.161 35.6521 141.564 -6.49154 -6.21385 -0.0911612 38.5335 -42.5666 44.4363 45.7996 -14.5351 86.2441 170.916 54.3484 -176.787 -15.5497 -21.7013 0.88573 2.54527 -9.65722 -17.6266 
-78.1002 48.2295 -66.1443 58.1133 -10.9962 -5.87797 -70.1915 0 88.8779 166.432 38.842 -71.1188 -11.5332 26.036 0.765608 -151.337 41.2112 162.974 166.051 79.2477 -113.343 0.557021 -13.2586 -26.0393 -65.8093 56.629 -72.0444 20.24 22.9026 -42.9521 0.420957 0.000575497 0.35866 -1.90595 9.82295 33.2513 -79.0471 5.26155 101.558 4.73388 -9.02841 28.1703 0.58676 0.000331214 0.0646655 -11.8184 -3.19114 85.8477 -169.174 35.641 141.821 -6.71062 -6.22627 -0.0762496 38.9328 -42.905 44.3553 45.7751 -14.5437 86.1771 170.955 54.3535 -177.067 -15.6965 -21.7046 0.876136 2.54466 -9.77425 -17.6668 
-78.1971 48.2043 -66.0786 58.2492 -11.0665 -5.85127 -70.1915 0 88.8779 166.445 38.763 -71.4471 -11.4386 25.9598 1.25132 -152.536 41.1547 164.442 165.23 78.9427 -113.031 0.541562 -13.301 -26.3467 -67.2524 56.8477 -70.9606 20.3763 23.3065 -42.6885 0.420957 0.000575497 0.35866 -1.87994 10.0404 32.5146 -79.6815 4.25097 101.201 5.48823 -10.104 28.9725 0.58676 0.000331214 0.0646655 -11.8741 -3.08789 85.7562 -169.184 35.5767 141.952 -6.53924 -6.5021 -0.127167 38.8021 -42.6945 44.6404 45.672 -14.4336 85.995 170.995 54.4131 -177.372 -15.8007 -21.754 0.866316 2.55487 -9.64581 -17.7444 
-78.258 48.1775 -66.0106 58.4787 -11.0173 -5.64178 -70.1915 0 88.8779 166.494 38.4887 -71.4541 -11.5355 25.94 1.26651 -152.257 40.8603 164.194 167.799 78.9624 -115.105 0.581107 -13.1139 -25.996 -66.6617 57.1935 -71.5739 20.4651 23.4494 -42.6635 0.420957 0.000575497 0.35866 -1.902 9.8916 33.0628 -79.309 4.73221 101.198 5.63376 -10.309 29.1127 0.58676 0.000331214 0.0646655 -11.9932 -2.98388 85.4616 -169.187 35.5231 141.912 -6.44936 -6.22923 -0.0965065 39.3183 -42.9353 45.0345 45.4032 -14.6102 85.7679 171.035 54.4217 -177.655 -15.9836 -21.8576 0.847659 2.55181 -9.70179 -17.7283 
-78.3233 48.1557 -65.882 58.481 -11.0122 -5.36446 -70.1915 0 88.8779 166.687 38.3101 -71.3204 -11.5108 26.0386 1.0586 -152.702 40.9164 164.371 167.137 78.905 -114.549 0.577131 -13.1081 -26.1784 -66.9834 57.0861 -71.3348 20.762 23.6104 -42.9385 0.420957 0.000575497 0.35866 -1.86694 9.77987 32.9352 -79.0401 4.51351 101.241 5.56664 -10.0479 29.4386 0.58676 0.000331214 0.0646655 -11.9416 -2.76687 84.9255 -169.195 35.4287 141.977 -6.31729 -6.22965 -0.106783 39.496 -43.1725 44.774 45.2608 -14.8095 85.2951 171.086 54.4859 -178.039 -16.2068 -22.0225 0.822017 2.54524 -9.67453 -17.6306 
-78.3533 48.1629 -65.7901 58.573 -11.0643 -5.37997 -70.1915 0 88.8779 166.739 37.9405 -71.4642 -11.6405 26.0914 0.887627 -153.065 40.7985 164.259 167.326 78.7766 -114.771 0.598316 -12.9524 -26.3348 -67.0971 56.8902 -71.4743 20.3128 23.4001 -42.4908 0.420957 0.000575497 0.35866 -1.85172 9.54575 33.2906 -79.1988 4.73959 101.456 5.88935 -10.5269 29.6882 0.58676 0.000331214 0.0646655 -12.0676 -2.68725 84.8221 -169.195 35.4862 142.032 -7.01438 -6.50887 -0.0932284 39.6333 -43.2171 44.9275 45.0972 -14.817 85.0768 171.102 54.5393 -178.168 -16.5651 -21.9196 0.805215 2.55101 -10.1947 -17.9368 
-78.366 48.1618 -65.6457 58.8193 -11.0489 -5.1861 -70.1915 0 88.8779 166.902 37.536 -71.5793 -11.6284 26.1587 0.713006 -153.131 40.6758 163.749 168.899 78.8584 -116.244 0.613053 -12.9161 -25.977 -67.1799 57.1104 -71.841 20.2868 23.5773 -42.2413 0.420957 0.000575497 0.35866 -1.85582 9.22923 34.0808 -78.4587 5.69561 101.454 4.77117 -8.47467 29.8235 0.58676 0.000331214 0.0646655 -12.421 -2.5221 84.4744 -169.187 35.5143 141.879 -6.96123 -6.51284 -0.0980837 40.0082 -43.3722 45.2558 44.7151 -14.9486 84.7396 171.135 54.5182 -178.389 -16.7931 -22.2072 0.76902 2.58064 -10.0413 -18.2615 
-78.436 48.2034 -65.4443 59.1617 -10.9116 -4.80649 -70.1915 0 88.8779 167.111 36.8438 -71.9556 -11.909 26.0522 0.96075 -152.845 40.4615 162.674 171.404 78.9686 -118.288 0.613553 -12.9411 -25.7988 -67.5503 56.9656 -71.4758 20.6451 23.6836 -42.6629 0.420957 0.000575497 0.35866 -1.90878 9.23855 34.6447 -78.5112 5.85502 101.056 5.40101 -9.41654 30.2927 0.58676 0.000331214 0.0646655 -12.8849 -2.43827 83.784 -169.192 35.6162 142.175 -6.36958 -6.39748 -0.125297 40.8545 -44.2563 44.6275 44.1385 -15.4163 84.2081 171.147 54.4973 -178.463 -17.1369 -22.8101 0.698639 2.65078 -9.11421 -18.7079 
-78.4341 48.2854 -65.0837 59.694 -10.6978 -4.18091 -70.1915 0 88.8779 167.4 36.0486 -72.3583 -11.6756 25.8046 1.36962 -154.171 40.4705 162.614 172.413 79.0178 -119.648 0.586985 -13.1107 -25.7986 -68.051 56.7586 -71.4375 19.9742 23.0171 -42.4097 0.420957 0.000575497 0.35866 -1.93483 9.47948 34.3504 -78.7705 5.40778 100.989 5.65448 -9.74883 30.5786 0.58676 0.000331214 0.0646655 -13.8367 -2.29408 82.6058 -169.205 36.0472 143.156 -5.94704 -6.85215 -0.216419 42.7398 -47.0607 41.6185 43.0982 -16.0278 83.3655 171.164 54.4348 -178.551 -17.5015 -23.7468 0.596132 2.76827 -8.12194 -19.5276 
-78.2793 48.4248 -64.3968 59.7216 -10.9993 -3.90437 -70.1915 0 88.8779 167.566 35.5599 -73.1411 -11.4442 25.9874 1.5388 -155.567 40.358 162.131 175.698 79.1536 -122.95 0.553146 -13.3141 -25.8617 -67.9931 56.0762 -71.7284 19.2778 21.8444 -42.7328 0.420957 0.000575497 0.35866 -1.93623 9.33633 34.711 -78.6502 5.72924 101.394 5.47442 -9.34971 30.8098 0.58676 0.000331214 0.0646655 -14.9805 -1.20596 81.449 -169.176 36.7544 143.495 -4.96627 -7.43446 -0.357183 42.8255 -51.0523 33.0412 42.2327 -15.8475 82.0367 171.191 54.4514 -178.755 -17.7884 -24.3021 0.525739 2.82926 -8.46983 -20.3971 
-78.1337 48.8412 -63.4475 59.8545 -11.3265 -3.15585 -70.1915 0 88.8779 167.779 34.9432 -74.2399 -11.0097 25.895 2.45067 -156.824 40.2326 161.844 178.238 79.1503 -125.057 0.511819 -13.6124 -25.674 -67.6574 55.6157 -72.5538 18.5298 20.247 -43.591 0.420957 0.000575497 0.35866 -1.96313 9.55097 34.4907 -79.7815 4.77258 101.6 5.99737 -9.68381 32.24 0.58676 0.000331214 0.0646655 -16.2467 0.502511 79.8722 -169.061 37.6623 142.545 -4.5171 -8.63361 -0.530396 43.6107 -49.3577 37.9669 40.6027 -16.0167 79.8601 171.091 54.6688 -178.274 -18.5199 -24.5908 0.431268 2.9563 -9.06498 -22.3294 
